{
	"asset":{
		"generator":"Khronos glTF Blender I/O v5.1.20",
		"version":"2.0"
	},
	"scene":0,
	"scenes":[
		{
			"name":"Scene",
			"nodes":[
				0
			]
		}
	],
	"nodes":[
		{
			"mesh":0,
			"name":"Tree",
			"translation":[
				0.008861850947141647,
				-0.019864480942487717,
				-0.0014622436137869954
			]
		}
	],
	"materials":[
		{
			"doubleSided":true,
			"name":"Bark",
			"pbrMetallicRoughness":{
				"metallicFactor":0
			}
		},
		{
			"alphaMode":"BLEND",
			"doubleSided":true,
			"name":"Beech Leaves",
			"pbrMetallicRoughness":{
				"metallicFactor":0
			}
		}
	],
	"meshes":[
		{
			"name":"Cube.001",
			"primitives":[
				{
					"attributes":{
						"POSITION":0,
						"NORMAL":1,
						"TEXCOORD_0":2
					},
					"indices":3,
					"material":0
				},
				{
					"attributes":{
						"POSITION":4,
						"NORMAL":5,
						"TEXCOORD_0":6
					},
					"indices":7,
					"material":1
				}
			]
		}
	],
	"accessors":[
		{
			"bufferView":0,
			"componentType":5126,
			"count":38008,
			"max":[
				5.186863422393799,
				11.279691696166992,
				5.762299537658691
			],
			"min":[
				-5.2270426750183105,
				-0.020741965621709824,
				-5.867476463317871
			],
			"type":"VEC3"
		},
		{
			"bufferView":1,
			"componentType":5126,
			"count":38008,
			"type":"VEC3"
		},
		{
			"bufferView":2,
			"componentType":5126,
			"count":38008,
			"type":"VEC2"
		},
		{
			"bufferView":3,
			"componentType":5123,
			"count":121947,
			"type":"SCALAR"
		},
		{
			"bufferView":4,
			"componentType":5126,
			"count":69849,
			"max":[
				5.296683311462402,
				11.422818183898926,
				5.913331985473633
			],
			"min":[
				-5.448546886444092,
				2.6672208309173584,
				-6.121452808380127
			],
			"type":"VEC3"
		},
		{
			"bufferView":5,
			"componentType":5126,
			"count":69849,
			"type":"VEC3"
		},
		{
			"bufferView":6,
			"componentType":5126,
			"count":69849,
			"type":"VEC2"
		},
		{
			"bufferView":7,
			"componentType":5125,
			"count":133896,
			"type":"SCALAR"
		}
	],
	"bufferViews":[
		{
			"buffer":0,
			"byteLength":456096,
			"byteOffset":0,
			"target":34962
		},
		{
			"buffer":0,
			"byteLength":456096,
			"byteOffset":456096,
			"target":34962
		},
		{
			"buffer":0,
			"byteLength":304064,
			"byteOffset":912192,
			"target":34962
		},
		{
			"buffer":0,
			"byteLength":243894,
			"byteOffset":1216256,
			"target":34963
		},
		{
			"buffer":0,
			"byteLength":838188,
			"byteOffset":1460152,
			"target":34962
		},
		{
			"buffer":0,
			"byteLength":838188,
			"byteOffset":2298340,
			"target":34962
		},
		{
			"buffer":0,
			"byteLength":558792,
			"byteOffset":3136528,
			"target":34962
		},
		{
			"buffer":0,
			"byteLength":535584,
			"byteOffset":3695320,
			"target":34963
		}
	],
	"buffers":[
		{
			"byteLength":4230904,
			"uri":"tree1.bin"
		}
	]
}
